# xmcd CD database file
#
# Track frame offsets:
#	151
#	26235
#	50104
#	69943
#	91166
#	112789
#	136365
#	152706
#	174007
#	194846
#	217903
#	234831
#	250052
#	267499
#	289151
#
# Disc length: 4212 seconds
#
# Revision: 0
# Processed by: cddbd v1.5.1PL0 Copyright (c) Steve Scherf et al.
# Submitted via: CDex 1.51
#
DISCID=cf10720f
DTITLE=Grupo Niche - Los 30 Mejores (Disco 1)
DYEAR=1900
DGENRE=Salsa
TTITLE0=Una Aventura
TTITLE1=Gotas de Lluvia
TTITLE2=Cali Pachanguero
TTITLE3=La magia de tus besos
TTITLE4=Ese dia
TTITLE5=Mi pueblo natal
TTITLE6=Ana Mile
TTITLE7=Como poder disimular
TTITLE8=Brilla el sol
TTITLE9=Hagamos lo que diga el corazon
TTITLE10=Perder para amar
TTITLE11=Mi valle del Cauca
TTITLE12=El amor vendra
TTITLE13=Miserable
TTITLE14=Listo Medellin
EXTD=
EXTT0=
EXTT1=
EXTT2=
EXTT3=
EXTT4=
EXTT5=
EXTT6=
EXTT7=
EXTT8=
EXTT9=
EXTT10=
EXTT11=
EXTT12=
EXTT13=
EXTT14=
PLAYORDER=
